<?xml version='1.0' encoding='iso-8859-1'?>
<!DOCTYPE svg PUBLIC '-//W3C//DTD SVG 1.1//EN' 'http://www.w3.org/Graphics/SVG/1.1/DTD/svg11.dtd'>
<svg version="1.1" xmlns="http://www.w3.org/2000/svg" viewBox="0 0 398 398" xmlns:xlink="http://www.w3.org/1999/xlink" enable-background="new 0 0 398 398">
  <g>
    <path d="m374,81.475v-50.66c0-5.523-4.478-10-10-10h-354c-5.522,0-10,4.477-10,10v285.16c0,5.523 4.478,10 10,10h40v23.21c0,15.439 12.561,28 28,28h292c15.439,0 28-12.561 28-28v-240c0-14.081-10.449-25.762-24-27.71zm-354,224.5v-265.16h334v40.37h-96c-15.439,0-28,12.561-28,28 0,4.411-3.589,8-8,8h-144c-15.439,0-28,12.561-28,28v160.79h-30zm358,43.21c0,4.411-3.589,8-8,8h-292c-4.411,0-8-3.589-8-8v-204c0-4.411 3.589-8 8-8h144c15.439,0 28-12.561 28-28 0-4.411 3.589-8 8-8h112c4.411,0 8,3.589 8,8v240z"/>
    <path d="m198,167.185h-92c-5.522,0-10,4.477-10,10s4.478,10 10,10h92c5.522,0 10-4.477 10-10s-4.478-10-10-10z"/>
    <path d="m198,201.185h-92c-5.522,0-10,4.477-10,10s4.478,10 10,10h92c5.522,0 10-4.477 10-10s-4.478-10-10-10z"/>
  </g>
</svg>
